<svg xmlns="http://www.w3.org/2000/svg" xmlns:xlink="http://www.w3.org/1999/xlink" width="500" zoomAndPan="magnify" viewBox="0 0 375 374.999991" height="500" preserveAspectRatio="xMidYMid meet" version="1.0"><defs><clipPath id="28c0bfa92e"><path d="M 115 138.683594 L 260 138.683594 L 260 236.183594 L 115 236.183594 Z M 115 138.683594 " clip-rule="nonzero"/></clipPath></defs><g clip-path="url(#28c0bfa92e)"><path fill="white" d="M 255.21875 183.890625 C 248.933594 159.960938 241.695312 144.21875 225.015625 139.695312 C 222.46875 139.003906 220.074219 138.667969 217.6875 138.667969 C 212.65625 138.667969 208.605469 140.183594 204.679688 141.648438 C 201.070312 143 197.039062 144.476562 191.460938 144.976562 L 187.285156 145.097656 C 187.285156 145.121094 174.675781 143.277344 170.289062 141.632812 C 166.386719 140.171875 162.34375 138.660156 157.332031 138.660156 C 154.941406 138.660156 152.539062 138.996094 149.996094 139.6875 C 133.304688 144.214844 126.066406 159.957031 119.796875 183.886719 C 112.527344 211.609375 114.539062 230.1875 125.308594 234.875 C 127.0625 235.640625 128.910156 236.03125 130.792969 236.03125 C 140.371094 236.03125 149.179688 225.972656 155.613281 218.625 L 157.363281 216.597656 C 162.609375 210.46875 173.597656 206.957031 187.503906 206.957031 C 202.628906 206.957031 211.925781 209.929688 217.640625 216.605469 L 219.394531 218.636719 C 225.820312 225.980469 234.621094 236.023438 244.207031 236.023438 C 246.101562 236.023438 247.941406 235.636719 249.683594 234.875 C 260.457031 230.191406 262.46875 211.609375 255.21875 183.890625 Z M 164.617188 185.761719 L 157.425781 185.761719 L 157.425781 192.71875 C 157.425781 195.269531 155.175781 197.417969 152.519531 197.417969 C 149.851562 197.417969 147.605469 195.269531 147.605469 192.71875 L 147.605469 185.761719 L 140.851562 185.761719 C 138.300781 185.761719 136.144531 183.515625 136.144531 180.859375 C 136.144531 178.195312 138.300781 175.949219 140.851562 175.949219 L 147.605469 175.949219 L 147.605469 168.988281 C 147.605469 166.441406 149.855469 164.285156 152.519531 164.285156 C 155.175781 164.285156 157.425781 166.441406 157.425781 168.988281 L 157.425781 175.949219 L 164.617188 175.949219 C 167.160156 175.949219 169.320312 178.195312 169.320312 180.859375 C 169.324219 183.515625 167.164062 185.761719 164.617188 185.761719 Z M 215.679688 194.296875 C 211.699219 194.296875 208.460938 191.066406 208.460938 187.089844 C 208.460938 183.117188 211.707031 179.886719 215.679688 179.886719 C 219.65625 179.886719 222.890625 183.117188 222.890625 187.089844 C 222.890625 191.066406 219.65625 194.296875 215.679688 194.296875 Z M 229.144531 180.851562 C 225.164062 180.851562 221.929688 177.617188 221.929688 173.644531 C 221.929688 169.675781 225.167969 166.441406 229.144531 166.441406 C 233.117188 166.441406 236.359375 169.675781 236.359375 173.644531 C 236.359375 177.621094 233.117188 180.851562 229.144531 180.851562 Z M 229.144531 180.851562 " fill-opacity="1" fill-rule="nonzero"/></g></svg>