<svg width="20" height="20" viewBox="0 0 20 20" fill="none" xmlns="http://www.w3.org/2000/svg">
<path fill-rule="evenodd" clip-rule="evenodd" d="M14.0343 12.7963C15.1125 11.4485 15.7572 9.73884 15.7572 7.87859C15.7572 3.52736 12.2298 0 7.87859 0C3.52736 0 0 3.52736 0 7.87859C0 12.2298 3.52736 15.7572 7.87859 15.7572C9.73884 15.7572 11.4485 15.1125 12.7963 14.0343L17.7556 18.9936C18.0974 19.3355 18.6518 19.3355 18.9936 18.9936C19.3355 18.6518 19.3355 18.0974 18.9936 17.7556L14.0343 12.7963ZM7.87859 14.0151C4.48945 14.0151 1.74201 11.2677 1.74201 7.87859C1.74201 4.48945 4.48945 1.74201 7.87859 1.74201C11.2677 1.74201 14.0151 4.48945 14.0151 7.87859C14.0151 11.2677 11.2677 14.0151 7.87859 14.0151Z" fill="white"/>
</svg>
